<?xml version="1.0" encoding="UTF-8" standalone="no"?>
<!DOCTYPE svg PUBLIC "-//W3C//DTD SVG 1.1//EN" "http://www.w3.org/Graphics/SVG/1.1/DTD/svg11.dtd">
<svg width="897px" height="800px" version="1.1" xmlns="http://www.w3.org/2000/svg" xmlns:xlink="http://www.w3.org/1999/xlink" xml:space="preserve" xmlns:serif="http://www.serif.com/" style="fill-rule:evenodd;clip-rule:evenodd;stroke-linecap:round;stroke-linejoin:round;stroke-miterlimit:1.5;">
    <g transform="matrix(1,0,0,1,-825.962,-1309.27)">
        <g transform="matrix(0.108311,-0.994117,0.994117,0.108311,-618.099,2609.2)">
            <path d="M855.36,1580.08L953.169,1518.02" style="fill:none;stroke:black;stroke-width:4.17px;"/>
            <g transform="matrix(3.08487,0,0,3.08487,-1980.53,-3160.72)">
                <ellipse cx="956.857" cy="1513.35" rx="9.572" ry="9.369" style="fill:rgb(0,33,255);stroke:black;stroke-width:1.35px;"/>
            </g>
            <g transform="matrix(4.48821,0,0,4.48821,-3323.72,-5283.93)">
                <path d="M948.743,1508.38C950.436,1505.74 953.439,1503.98 956.857,1503.98C962.14,1503.98 966.429,1508.18 966.429,1513.35C966.429,1517.24 963.251,1521.07 959.795,1522.48" style="fill:none;stroke:black;stroke-width:0.93px;"/>
            </g>
            <path d="M1083.71,1439.71L1007.58,1484.8" style="fill:none;stroke:black;stroke-width:4.17px;"/>
        </g>
        <g transform="matrix(-0.862923,-0.505335,0.505335,-0.862923,1344.8,3775.94)">
            <path d="M855.36,1580.08L953.169,1518.02" style="fill:none;stroke:black;stroke-width:4.17px;"/>
            <g transform="matrix(3.08487,0,0,3.08487,-1980.53,-3160.72)">
                <ellipse cx="956.857" cy="1513.35" rx="9.572" ry="9.369" style="fill:rgb(0,184,48);stroke:black;stroke-width:1.35px;"/>
            </g>
            <g transform="matrix(4.48821,0,0,4.48821,-3323.72,-5283.93)">
                <path d="M948.743,1508.38C950.436,1505.74 953.439,1503.98 956.857,1503.98C962.14,1503.98 966.429,1508.18 966.429,1513.35C966.429,1517.24 963.251,1521.07 959.795,1522.48" style="fill:none;stroke:black;stroke-width:0.93px;"/>
            </g>
            <path d="M1083.71,1439.71L1007.58,1484.8" style="fill:none;stroke:black;stroke-width:4.17px;"/>
        </g>
        <g transform="matrix(-0.81292,0.582376,-0.582376,-0.81292,3232.99,2474.14)">
            <path d="M855.36,1580.08L953.169,1518.02" style="fill:none;stroke:black;stroke-width:4.17px;"/>
            <g transform="matrix(3.08487,0,0,3.08487,-1980.53,-3160.72)">
                <ellipse cx="956.857" cy="1513.35" rx="9.572" ry="9.369" style="fill:rgb(243,126,0);stroke:black;stroke-width:1.35px;"/>
            </g>
            <g transform="matrix(4.48821,0,0,4.48821,-3323.72,-5283.93)">
                <path d="M948.743,1508.38C950.436,1505.74 953.439,1503.98 956.857,1503.98C962.14,1503.98 966.429,1508.18 966.429,1513.35C966.429,1517.24 963.251,1521.07 959.795,1522.48" style="fill:none;stroke:black;stroke-width:0.93px;"/>
            </g>
            <path d="M1083.71,1439.71L1007.58,1484.8" style="fill:none;stroke:black;stroke-width:4.17px;"/>
        </g>
        <g transform="matrix(0.470884,0.882195,-0.882195,0.470884,2334.14,-74.5988)">
            <path d="M855.36,1580.08L953.169,1518.02" style="fill:none;stroke:black;stroke-width:4.17px;"/>
            <g transform="matrix(3.08487,0,0,3.08487,-1980.53,-3160.72)">
                <ellipse cx="956.857" cy="1513.35" rx="9.572" ry="9.369" style="fill:rgb(222,116,201);stroke:black;stroke-width:1.35px;"/>
            </g>
            <g transform="matrix(4.48821,0,0,4.48821,-3323.72,-5283.93)">
                <path d="M948.743,1508.38C950.436,1505.74 953.439,1503.98 956.857,1503.98C962.14,1503.98 966.429,1508.18 966.429,1513.35C966.429,1517.24 963.251,1521.07 959.795,1522.48" style="fill:none;stroke:black;stroke-width:0.93px;"/>
            </g>
            <path d="M1083.71,1439.71L1007.58,1484.8" style="fill:none;stroke:black;stroke-width:4.17px;"/>
        </g>
        <g transform="matrix(1.18081,0,0,1.41739,-145.599,-570.184)">
            <ellipse cx="897.696" cy="1555.41" rx="73.138" ry="60.789" style="fill:rgb(235,235,235);stroke:black;stroke-width:3.19px;"/>
        </g>
        <g transform="matrix(1.17887,0,0,1.41835,433.112,-222.675)">
            <ellipse cx="897.696" cy="1555.41" rx="73.138" ry="60.789" style="fill:rgb(235,235,235);stroke:black;stroke-width:3.19px;"/>
        </g>
        <g transform="matrix(1.18081,0,0,1.41739,14.2775,-221.226)">
            <ellipse cx="897.696" cy="1555.41" rx="73.138" ry="60.789" style="fill:rgb(235,235,235);stroke:black;stroke-width:3.19px;"/>
        </g>
        <g transform="matrix(1.17887,0,0,1.41506,576.356,-579.763)">
            <ellipse cx="897.696" cy="1555.41" rx="73.138" ry="60.789" style="fill:rgb(235,235,235);stroke:black;stroke-width:3.2px;"/>
        </g>
        <g transform="matrix(1.17887,0,0,1.41506,226.476,-803.628)">
            <ellipse cx="897.696" cy="1555.41" rx="73.138" ry="60.789" style="fill:rgb(235,235,235);stroke:black;stroke-width:3.2px;"/>
        </g>
        <g transform="matrix(1,0,0,1,79.9505,5.67478)">
            <text x="844.018px" y="1454.14px" style="font-family:'ArialMT', 'Arial', sans-serif;font-size:50px;fill:rgb(255,0,0);">Ball joint</text>
        </g>
        <g transform="matrix(1,0,0,1,202.417,331.683)">
            <text x="844.018px" y="1454.14px" style="font-family:'ArialMT', 'Arial', sans-serif;font-size:50px;fill:rgb(0,33,255);">Ball joint</text>
        </g>
        <g transform="matrix(1,0,0,1,480.926,331.683)">
            <text x="844.018px" y="1454.14px" style="font-family:'ArialMT', 'Arial', sans-serif;font-size:50px;fill:rgb(243,126,0);">Ball joint</text>
        </g>
        <g transform="matrix(1,0,0,1,331.008,643.616)">
            <text x="844.018px" y="1454.14px" style="font-family:'ArialMT', 'Arial', sans-serif;font-size:50px;fill:rgb(0,184,48);">Ball joint</text>
        </g>
        <g transform="matrix(1,0,0,1,782.927,564.958)">
            <text x="437.865px" y="850.383px" style="font-family:'ArialMT', 'Arial', sans-serif;font-size:50px;">Link 1</text>
        </g>
        <g transform="matrix(1,0,0,1,1132.81,788.823)">
            <text x="437.865px" y="850.383px" style="font-family:'ArialMT', 'Arial', sans-serif;font-size:50px;">Link 5</text>
        </g>
        <g transform="matrix(1,0,0,1,991.792,1151.29)">
            <text x="437.865px" y="850.383px" style="font-family:'ArialMT', 'Arial', sans-serif;font-size:50px;">Link 4</text>
        </g>
        <g transform="matrix(1,0,0,1,569.012,1150.66)">
            <text x="437.865px" y="850.383px" style="font-family:'ArialMT', 'Arial', sans-serif;font-size:50px;">Link 3</text>
        </g>
        <g transform="matrix(1,0,0,1,412.59,802.016)">
            <text x="437.865px" y="850.383px" style="font-family:'ArialMT', 'Arial', sans-serif;font-size:50px;">Link 2</text>
        </g>
        <g transform="matrix(1,0,0,1,132.561,7.47602)">
            <path d="M855.36,1580.08L953.169,1518.02" style="fill:none;stroke:black;stroke-width:4.17px;"/>
            <g transform="matrix(3.08487,0,0,3.08487,-1980.53,-3160.72)">
                <ellipse cx="956.857" cy="1513.35" rx="9.572" ry="9.369" style="fill:rgb(255,0,0);stroke:black;stroke-width:1.35px;"/>
            </g>
            <g transform="matrix(4.48821,0,0,4.48821,-3323.72,-5283.93)">
                <path d="M948.743,1508.38C950.436,1505.74 953.439,1503.98 956.857,1503.98C962.14,1503.98 966.429,1508.18 966.429,1513.35C966.429,1517.24 963.251,1521.07 959.795,1522.48" style="fill:none;stroke:black;stroke-width:0.93px;"/>
            </g>
            <path d="M1083.71,1439.71L1007.58,1484.8" style="fill:none;stroke:black;stroke-width:4.17px;"/>
        </g>
        <g transform="matrix(1,0,0,1,665.887,-11.8588)">
            <text x="844.018px" y="1454.14px" style="font-family:'ArialMT', 'Arial', sans-serif;font-size:50px;fill:rgb(222,116,201);">Ball joint</text>
        </g>
    </g>
</svg>
