<?xml version="1.0" encoding="UTF-8" standalone="no"?><!DOCTYPE svg PUBLIC "-//W3C//DTD SVG 1.1//EN" "http://www.w3.org/Graphics/SVG/1.1/DTD/svg11.dtd"><svg width="100%" height="100%" viewBox="0 0 403 128" version="1.1" xmlns="http://www.w3.org/2000/svg" xmlns:xlink="http://www.w3.org/1999/xlink" xml:space="preserve" xmlns:serif="http://www.serif.com/" style="fill-rule:evenodd;clip-rule:evenodd;stroke-linecap:round;stroke-linejoin:round;stroke-miterlimit:1.5;"><path d="M257.853,73.724l11.968,15.893l56.491,-42.538l-11.968,-15.893l-56.491,42.538Z" style="fill:none;stroke:#c8c8c8;stroke-width:0.65px;stroke-dasharray:0.65,1.95,0,0;"/><g><path d="M292.17,60.826l-2.995,-4.63l2.995,4.63" style="fill:#ca4747;stroke:#24ec31;stroke-width:0.6px;stroke-dasharray:0.6,1.8,0,0;"/><path d="M292.17,60.826l-4.631,2.995l4.631,-2.995" style="fill:#ca4747;stroke:#ec2424;stroke-width:0.6px;stroke-dasharray:0.6,1.8,0,0;"/></g><path d="M140.845,78.671l11.968,15.893l56.491,-42.539l-11.968,-15.893l-56.491,42.539Z" style="fill:#ebebeb;stroke:#000;stroke-width:1px;"/><g><path d="M175.162,65.773l-2.995,-4.631l2.995,4.631" style="fill:#ca4747;stroke:#24ec31;stroke-width:1px;"/><path d="M175.162,65.773l-4.631,2.994l4.631,-2.994" style="fill:#ca4747;stroke:#ec2424;stroke-width:1px;"/></g><path d="M240.591,13.543c0,-4.173 -3.388,-7.56 -7.56,-7.56l-15.12,0c-4.172,0 -7.56,3.387 -7.56,7.56l0,103.61c0,4.172 3.388,7.56 7.56,7.56l15.12,0c4.172,0 7.56,-3.388 7.56,-7.56l0,-103.61Z" style="fill:#fff8d3;stroke:#a8a8a8;stroke-width:1.5px;"/><path d="M113.699,43.233l-15.833,-12.047l-42.821,56.277l15.832,12.047l42.822,-56.277Z" style="fill:#ebebeb;stroke:#000;stroke-width:1px;"/><path d="M84.372,65.348l4.21,3.562l-4.21,-3.562" style="fill:#ca4747;stroke:#24ec31;stroke-width:1px;"/><path d="M84.372,65.348l3.562,-4.21l-3.562,4.21" style="fill:#ca4747;stroke:#ec2424;stroke-width:1px;"/><g transform="matrix(0.439317,0,0,0.439317,-276.526,-106.647)"><text x="770.357px" y="505.336px" style="font-family:'ArialMT', 'Arial', sans-serif;font-size:29.591px;fill:#62a6c8;">t</text><text x="778.579px" y="505.336px" style="font-family:'Apple-Chancery', 'Apple Chancery', cursive;font-size:29.591px;fill:#62a6c8;">0</text></g><g transform="matrix(0.440329,0,0,0.440329,-172.762,-107.309)"><text x="770.357px" y="505.336px" style="font-family:'ArialMT', 'Arial', sans-serif;font-size:29.523px;fill:#62a6c8;">t</text><text x="778.56px" y="505.336px" style="font-family:'Apple-Chancery', 'Apple Chancery', cursive;font-size:29.523px;fill:#62a6c8;">1</text></g></svg>