<?xml version="1.0" encoding="UTF-8" standalone="no"?><!DOCTYPE svg PUBLIC "-//W3C//DTD SVG 1.1//EN" "http://www.w3.org/Graphics/SVG/1.1/DTD/svg11.dtd"><svg width="100%" height="100%" viewBox="0 0 403 128" version="1.1" xmlns="http://www.w3.org/2000/svg" xmlns:xlink="http://www.w3.org/1999/xlink" xml:space="preserve" xmlns:serif="http://www.serif.com/" style="fill-rule:evenodd;clip-rule:evenodd;stroke-linecap:round;stroke-linejoin:round;stroke-miterlimit:1.5;"><path d="M260.081,69.076l11.968,15.893l56.491,-42.538l-11.968,-15.893l-56.491,42.538Z" style="fill:none;stroke:#c8c8c8;stroke-width:0.65px;stroke-dasharray:0.65,1.95,0,0;"/><g><path d="M294.398,56.178l-2.995,-4.631l2.995,4.631" style="fill:#ca4747;stroke:#24ec31;stroke-width:0.6px;stroke-dasharray:0.6,1.8,0,0;"/><path d="M294.398,56.178l-4.631,2.995l4.631,-2.995" style="fill:#ca4747;stroke:#ec2424;stroke-width:0.6px;stroke-dasharray:0.6,1.8,0,0;"/></g><path d="M239.544,14.681c0,-4.173 -3.388,-7.56 -7.56,-7.56l-15.12,0c-4.173,0 -7.56,3.387 -7.56,7.56l0,102.588c0,4.172 3.387,7.56 7.56,7.56l15.12,0c4.172,0 7.56,-3.388 7.56,-7.56l0,-102.588Z" style="fill:#fff8d3;stroke:#a8a8a8;stroke-width:1.5px;"/><path d="M113.699,37.772l-15.833,-12.047l-42.821,56.277l15.832,12.047l42.822,-56.277Z" style="fill:#ebebeb;stroke:#000;stroke-width:1px;"/><path d="M140.569,36.751l-4.676,19.338l68.735,16.62l4.676,-19.337l-68.735,-16.621Z" style="fill:#ebebeb;stroke:#000;stroke-width:1px;"/><path d="M84.372,59.887l4.21,3.562l-4.21,-3.562" style="fill:#ca4747;stroke:#24ec31;stroke-width:1px;"/><path d="M84.372,59.887l3.562,-4.21l-3.562,4.21" style="fill:#ca4747;stroke:#ec2424;stroke-width:1px;"/><g><path d="M172.725,54.694l-1.466,5.316l1.466,-5.316" style="fill:#ca4747;stroke:#24ec31;stroke-width:1px;"/><path d="M172.725,54.694l5.317,1.466l-5.317,-1.466" style="fill:#ca4747;stroke:#ec2424;stroke-width:1px;"/></g><g transform="matrix(0.439317,0,0,0.439317,-277.798,-110.408)"><text x="770.357px" y="505.336px" style="font-family:'ArialMT', 'Arial', sans-serif;font-size:29.591px;fill:#62a6c8;">t</text><text x="778.579px" y="505.336px" style="font-family:'Apple-Chancery', 'Apple Chancery', cursive;font-size:29.591px;fill:#62a6c8;">0</text></g><g transform="matrix(0.440329,0,0,0.440329,-174.035,-111.07)"><text x="770.357px" y="505.336px" style="font-family:'ArialMT', 'Arial', sans-serif;font-size:29.523px;fill:#62a6c8;">t</text><text x="778.56px" y="505.336px" style="font-family:'Apple-Chancery', 'Apple Chancery', cursive;font-size:29.523px;fill:#62a6c8;">1</text></g></svg>