<?xml version="1.0" encoding="UTF-8" standalone="no"?><!DOCTYPE svg PUBLIC "-//W3C//DTD SVG 1.1//EN" "http://www.w3.org/Graphics/SVG/1.1/DTD/svg11.dtd"><svg width="60px" height="60px" version="1.1" xmlns="http://www.w3.org/2000/svg" xmlns:xlink="http://www.w3.org/1999/xlink" xml:space="preserve" xmlns:serif="http://www.serif.com/" style="fill-rule:evenodd;clip-rule:evenodd;stroke-linejoin:round;stroke-miterlimit:1.41421;"><path d="M49.905,57.145c-0.015,-0.095 -0.1,-0.279 -0.051,-0.279c-1.103,-1.51 -5.827,-5.086 -5.889,-5.664c-0.071,-0.61 -1.387,-2.81 -2.947,-4.241c-0.668,-1.014 -0.73,-1.79 -1.475,-2.829c-0.737,-1.032 -2.121,-3.148 -2.942,-4.246l-5.552,-3.36c-0.807,-0.412 -5.445,-0.262 -11.905,-6.83l-0.216,-3.969c-0.864,-1.017 -2.669,-3.456 -2.936,-4.248c-1.704,-4.874 -0.574,-8.859 -1.477,-15.566l-3.273,-2.108l-3.919,-0.723c-1.322,-0.534 -4.543,-0.198 -4.543,-0.198l0,54.336l47.25,0l-0.125,-0.075Z" style="fill:#f7e0ff;fill-rule:nonzero;stroke:#6e55de;stroke-width:2.5px;"/><path d="M27.766,22.898c0.336,0.932 1.11,1.059 0,1.416l-2.943,1.415l-2.941,-2.831c-0.392,-1.108 0.091,-1.819 1.474,-2.831l2.944,1.411c0.355,0.436 1.352,1.093 1.466,1.42Zm-2.943,-11.328c-0.886,-0.416 -1.952,-0.316 -2.941,0c-0.521,0.163 -0.868,0.911 -1.476,1.415l0,4.247l4.417,-1.416c1.217,-1.328 1.765,-2.003 1.477,-2.831c-0.234,-0.656 -0.581,-0.983 -1.477,-1.415Zm12.113,5.706l-0.332,-0.041c-0.169,0.055 -1.43,-0.962 -2.939,-1.416c-0.731,-0.24 -0.739,0.276 -1.478,0c-1.042,0.342 -1.217,1.18 -1.477,2.832c-0.249,1.659 -0.573,4 0,5.662c0.159,0.449 0.895,0.852 1.477,1.415l1.478,1.414l1.468,0c1.918,-0.805 2.648,-2.733 2.943,-2.83c0.694,-0.399 1.231,-1.583 1.475,-2.832c0.236,-1.255 0.405,-1.663 0,-2.831c-0.465,-1.326 -1.689,-1.666 -2.615,-1.373Zm-0.332,12.699l0,2.833c0.734,0.627 1.509,1.208 2.947,1.417l2.942,-1.417l-1.474,-4.248l-4.415,1.415Zm17.673,0c-1.969,-2.094 -3.015,-2.344 -5.895,-1.419l-1.471,0c-1.365,1.161 -1.995,2.058 -2.943,4.248c-0.926,2.091 -1.888,4.459 -1.475,5.661c0.037,0.096 1.202,1.328 2.943,2.831c1.84,1.458 2.721,2.343 2.943,2.833l5.892,-1.422c0.634,-0.198 3.094,-5.234 2.942,-5.656c-1.18,-3.414 -1.736,-5.773 -2.936,-7.076Z" style="fill:#d3ffe0;fill-rule:nonzero;stroke:#6e55de;stroke-width:0.75px;"/></svg>