<?xml version="1.0" encoding="UTF-8" standalone="no"?><!DOCTYPE svg PUBLIC "-//W3C//DTD SVG 1.1//EN" "http://www.w3.org/Graphics/SVG/1.1/DTD/svg11.dtd"><svg width="60px" height="60px" version="1.1" xmlns="http://www.w3.org/2000/svg" xmlns:xlink="http://www.w3.org/1999/xlink" xml:space="preserve" xmlns:serif="http://www.serif.com/" style="fill-rule:evenodd;clip-rule:evenodd;stroke-linejoin:round;stroke-miterlimit:1.41421;"><path d="M30,1.734c16.557,0 28.032,11.709 28.032,28.266c0,16.557 -11.475,28.048 -28.032,28.048c-16.557,0 -28.749,-11.491 -28.749,-28.048c0,-16.557 12.192,-28.266 28.749,-28.266Zm0,4.563c13.082,0 23.703,10.621 23.703,23.703c0,13.082 -10.621,23.703 -23.703,23.703c-13.082,0 -23.703,-10.621 -23.703,-23.703c0,-13.082 10.621,-23.703 23.703,-23.703Z" style="fill:#6e55de;"/><path d="M30,47.335c-9.564,0 -17.335,-7.783 -17.335,-17.335c0,-9.552 7.771,-17.335 17.335,-17.335c9.564,0 17.335,7.771 17.335,17.335c0,9.564 -7.771,17.335 -17.335,17.335Zm0,-33.268c-8.78,0 -15.933,7.153 -15.933,15.933c0,8.78 7.153,15.933 15.933,15.933c8.78,0 15.933,-7.153 15.933,-15.933c0,-8.78 -7.153,-15.933 -15.933,-15.933Z" style="fill:#61d180;fill-rule:nonzero;"/><path d="M30,39.814c-5.406,0 -9.814,-4.396 -9.814,-9.814c0,-5.406 4.396,-9.814 9.814,-9.814c5.418,0 9.814,4.396 9.814,9.814c0,5.406 -4.408,9.814 -9.814,9.814Zm0,-18.214c-4.634,0 -8.4,3.766 -8.4,8.4c0,4.634 3.766,8.4 8.4,8.4c4.634,0 8.4,-3.766 8.4,-8.4c0,-4.634 -3.766,-8.4 -8.4,-8.4Z" style="fill:#61d180;fill-rule:nonzero;"/><path d="M30,33.743c-2.067,0 -3.743,-1.676 -3.743,-3.743c0,-2.067 1.676,-3.743 3.743,-3.743c2.067,0 3.743,1.676 3.743,3.743c0,2.067 -1.688,3.743 -3.743,3.743Zm0,-6.072c-1.283,0 -2.329,1.046 -2.329,2.329c0,1.283 1.046,2.329 2.329,2.329c1.283,0 2.329,-1.046 2.329,-2.329c0,-1.283 -1.046,-2.329 -2.329,-2.329Z" style="fill:#61d180;fill-rule:nonzero;"/><circle cx="15.184" cy="22.693" r="2.388" style="fill:#f7e0ff;stroke:#6e55de;stroke-width:0.7px;"/><circle cx="39.077" cy="30" r="2.388" style="fill:#f7e0ff;stroke:#6e55de;stroke-width:0.7px;"/><circle cx="38.566" cy="44.246" r="2.388" style="fill:#f7e0ff;stroke:#6e55de;stroke-width:0.7px;"/><path d="M49.057,15.921l-19.057,14.079l8.982,-21.933c4.04,1.652 7.521,4.396 10.075,7.854Z" style="fill:#61d180;fill-rule:nonzero;"/></svg>