<?xml version="1.0" encoding="UTF-8" standalone="no"?><!DOCTYPE svg PUBLIC "-//W3C//DTD SVG 1.1//EN" "http://www.w3.org/Graphics/SVG/1.1/DTD/svg11.dtd"><svg width="60px" height="60px" version="1.1" xmlns="http://www.w3.org/2000/svg" xmlns:xlink="http://www.w3.org/1999/xlink" xml:space="preserve" xmlns:serif="http://www.serif.com/" style="fill-rule:evenodd;clip-rule:evenodd;stroke-linejoin:round;stroke-miterlimit:1.41421;"><path d="M2.117,22.615l1.507,5.784c0.328,1.269 0.634,2.446 0.845,3.622l0.072,0c0.258,-1.153 0.633,-2.376 1.008,-3.598l1.86,-5.806l1.736,0l1.766,5.69c0.422,1.363 0.752,2.563 1.009,3.716l0.071,0c0.187,-1.153 0.497,-2.353 0.874,-3.692l1.619,-5.712l2.048,0l-3.667,11.38l-1.884,0l-1.742,-5.432c-0.399,-1.267 -0.728,-2.396 -1.009,-3.736l-0.049,0c-0.281,1.363 -0.633,2.54 -1.033,3.761l-1.835,5.408l-1.877,0l-3.436,-11.385l2.117,0Z" style="fill:#6e55de;fill-rule:nonzero;"/><path d="M19.693,22.615l1.507,5.784c0.328,1.269 0.634,2.446 0.845,3.622l0.072,0c0.258,-1.153 0.633,-2.376 1.008,-3.598l1.86,-5.806l1.736,0l1.766,5.69c0.422,1.363 0.752,2.563 1.009,3.716l0.071,0c0.187,-1.153 0.497,-2.353 0.874,-3.692l1.619,-5.712l2.048,0l-3.667,11.38l-1.883,0l-1.741,-5.432c-0.4,-1.267 -0.728,-2.396 -1.009,-3.736l-0.047,0c-0.281,1.363 -0.633,2.54 -1.033,3.761l-1.835,5.408l-1.879,0l-3.436,-11.379l2.115,0l0,-0.006Z" style="fill:#6e55de;fill-rule:nonzero;"/><path d="M37.274,22.615l1.502,5.784c0.328,1.269 0.634,2.446 0.845,3.622l0.072,0c0.258,-1.153 0.639,-2.376 1.014,-3.598l1.854,-5.806l1.742,0l1.766,5.69c0.422,1.363 0.751,2.563 1.008,3.716l0.072,0c0.187,-1.153 0.493,-2.353 0.868,-3.692l1.623,-5.712l2.042,0l-3.667,11.38l-1.879,0l-1.741,-5.432c-0.4,-1.267 -0.728,-2.396 -1.009,-3.736l-0.047,0c-0.281,1.363 -0.639,2.54 -1.037,3.761l-1.831,5.408l-1.883,0l-3.43,-11.379l2.116,0l0,-0.006Z" style="fill:#6e55de;fill-rule:nonzero;"/><path d="M42.938,43.237c-4.878,0 -9.501,-2.358 -12.37,-6.308l1.361,-0.99c2.554,3.519 6.669,5.619 11.009,5.619c7.495,0 13.596,-6.101 13.596,-13.596c0,-7.496 -6.101,-13.596 -13.596,-13.596c-5.03,0 -9.629,2.76 -12.002,7.203l-1.483,-0.793c2.666,-4.991 7.832,-8.092 13.485,-8.092c8.423,0 15.275,6.853 15.275,15.276c0,8.423 -6.852,15.277 -15.275,15.277Z" style="fill:#61d180;fill-rule:nonzero;"/><path d="M51.647,40.136l7.164,7.18l1.189,-1.187l-7.164,-7.18l-1.189,1.187Z" style="fill:#61d180;"/></svg>