<?xml version="1.0" encoding="UTF-8" standalone="no"?><!DOCTYPE svg PUBLIC "-//W3C//DTD SVG 1.1//EN" "http://www.w3.org/Graphics/SVG/1.1/DTD/svg11.dtd"><svg width="100%" height="100%" viewBox="0 0 135 68" version="1.1" xmlns="http://www.w3.org/2000/svg" xmlns:xlink="http://www.w3.org/1999/xlink" xml:space="preserve" xmlns:serif="http://www.serif.com/" style="fill-rule:evenodd;clip-rule:evenodd;stroke-linecap:round;stroke-linejoin:round;stroke-miterlimit:1.5;"><g id="Layer-1" serif:id="Layer 1"><path d="M33.803,16.898l13.092,6.741l3.613,5.466c0,0 0.007,0.01 0.02,0.029l14.158,0.236l4.481,-2.288l-1.415,-10.313l2.809,0.915l17.849,-10.611l0.319,-3.191l7.016,-0.135l16.972,9.258l0,6.362l-18.273,-0.294l-0.204,-2.191l-3.479,0.098l-0.072,1.804l-6.75,3.197l-0.855,-0.219l0.672,0.219l3.065,4.292l-0.007,17.98l-2.045,5.095l-0.446,0.182l6.366,3.015l0.072,1.804l3.479,0.098l0.204,-2.191l18.273,-0.294l0,6.362l-16.972,9.258l-7.016,-0.135l-0.319,-3.191l-17.075,-9.424l0.054,-0.023l-4.303,1.756l-2.447,-2.121l0.01,-5.096l-19.919,0c-0.127,0.068 -0.257,0.137 -0.389,0.207c-3.922,2.07 -4.326,1.696 -5.514,1.637c-1.603,-0.078 -3.791,0.311 -7.281,-0.561l-30.867,-14.9l33.124,-18.833Z" style="fill:#292929;stroke:#292929;stroke-width:0.95px;"/><path d="M76.629,41.114c-0.204,0.123 -0.311,0.218 -0.311,0.218c-0.402,0.233 0.639,3.113 1.494,5.019c1.164,2.165 1.335,3.854 1.236,3.913c-0.062,0.037 -0.486,-0.607 -1.089,-1.633c-1.491,-2.076 -4.308,-6.035 -4.823,-6.996c-0.585,-1.09 0,-1.396 0,-1.396l3.899,-2.872c0.036,-0.128 0.073,-0.255 0.111,-0.382l-1.281,-1.856c-0.131,-0.188 -0.157,-0.434 -0.072,-0.649c0.085,-0.214 0.271,-0.368 0.491,-0.405l2.166,-0.368c0.083,-0.171 0.171,-0.34 0.26,-0.507l-0.91,-2.083c-0.094,-0.212 -0.074,-0.459 0.05,-0.651c0.124,-0.194 0.334,-0.307 0.557,-0.298l2.198,0.08c0.114,-0.148 0.229,-0.295 0.347,-0.439l-0.505,-2.233c-0.051,-0.227 0.014,-0.464 0.172,-0.629c0.157,-0.164 0.385,-0.232 0.602,-0.178l2.14,0.526c0.139,-0.123 0.28,-0.244 0.423,-0.362l-0.077,-2.292c-0.009,-0.232 0.099,-0.453 0.285,-0.581c0.186,-0.13 0.421,-0.15 0.624,-0.053l1.998,0.949c0.16,-0.092 0.322,-0.184 0.486,-0.272l0.352,-2.259c0.036,-0.228 0.183,-0.423 0.39,-0.512c0.205,-0.089 0.441,-0.06 0.621,0.076l1.781,1.336c0.175,-0.058 0.351,-0.114 0.53,-0.168l0.767,-2.141c0.078,-0.219 0.258,-0.379 0.477,-0.424c0.219,-0.045 0.444,0.031 0.596,0.2l1.498,1.677c0.182,-0.021 0.363,-0.04 0.545,-0.056l1.157,-1.949c0.117,-0.198 0.324,-0.318 0.548,-0.318c0.222,0 0.43,0.12 0.546,0.318l1.157,1.949c0.182,0.016 0.364,0.035 0.545,0.056l1.499,-1.677c0.152,-0.169 0.378,-0.245 0.596,-0.2c0.219,0.045 0.399,0.205 0.477,0.424l0.768,2.141c0.178,0.054 0.354,0.11 0.53,0.168l1.78,-1.336c0.181,-0.136 0.416,-0.165 0.622,-0.076c0.206,0.089 0.353,0.284 0.389,0.512l0.353,2.259c0.164,0.088 0.325,0.179 0.487,0.272l1.996,-0.949c0.203,-0.097 0.44,-0.077 0.625,0.053c0.185,0.128 0.294,0.349 0.285,0.581l-0.076,2.292c0.142,0.118 0.282,0.239 0.422,0.362l2.14,-0.526c0.217,-0.053 0.445,0.014 0.603,0.178c0.158,0.165 0.222,0.402 0.171,0.629l-0.504,2.233c0.117,0.145 0.233,0.291 0.346,0.439l2.198,-0.08c0.222,-0.006 0.434,0.104 0.558,0.298c0.124,0.192 0.143,0.439 0.05,0.651l-0.91,2.083c0.088,0.167 0.176,0.336 0.261,0.507l2.165,0.368c0.22,0.037 0.406,0.19 0.491,0.405c0.085,0.215 0.057,0.461 -0.072,0.649l-1.281,1.856c0.01,0.033 0.019,0.066 0.029,0.098l0.053,0.057c1.255,-0.718 2.54,-1.649 2.928,-2.613c0,0 -5.757,-4.58 1.132,-9.445l0.187,6.201c0,0 2.041,-1.969 1.951,-5.417c0,0 6.349,3.054 -1.081,8.459c0,0 -0.16,1.854 -3.637,4.387l2.088,2.219c0,0 0.555,0.435 -0.253,1.457c-0.712,0.902 -4.371,4.477 -6.303,6.349c-0.816,0.951 -1.376,1.54 -1.434,1.489c-0.092,-0.081 0.392,-1.811 1.999,-3.84c1.239,-1.821 2.848,-4.622 2.471,-4.945c0,0 -0.167,-0.211 -0.501,-0.466c-0.041,0.154 -0.119,0.339 -0.259,0.556c-0.442,0.686 -2.656,3.375 -3.825,4.783c-0.502,0.722 -0.843,1.166 -0.872,1.123c-0.047,-0.068 0.312,-1.423 1.308,-2.969c0.466,-0.83 1.032,-1.931 1.365,-2.743c-0.931,0.589 -2.172,1.123 -3.585,1.583l0,-0.007c-3.444,0.992 -8.018,1.6 -13.078,1.6c-0.14,0 -0.279,0 -0.418,-0.001l-0.768,0.071c0.168,0.218 0.337,0.451 0.508,0.699c0,0 -1.619,-0.942 -5.961,0.206c0,0 1.997,3.057 6.02,2.963c0,0 -3.855,4.625 -9.722,-2.056c0,0 -3.806,-1.472 -5.697,-4.58c-0.762,-0.377 -1.399,-0.783 -1.89,-1.212c0.194,0.781 0.858,2.36 1.388,3.471c0.87,1.589 1.185,2.972 1.145,3.041c-0.026,0.043 -0.323,-0.415 -0.761,-1.157c-1.018,-1.452 -2.949,-4.224 -3.335,-4.93c-0.059,-0.108 -0.106,-0.209 -0.142,-0.302Zm7.656,2.483c0.389,0.315 0.821,0.636 1.301,0.959l1.108,0.26l0,-0.583c0.019,-0.027 0.046,-0.064 0.081,-0.11c-0.876,-0.155 -1.709,-0.331 -2.49,-0.526Z" style="fill:#292929;fill-rule:nonzero;"/><path d="M76.58,39.367l0.593,-1.229c-0.003,-0.046 -0.005,-0.093 -0.005,-0.14c0,-1.393 1.448,-2.677 3.886,-3.705l0,7.41c-1.137,-0.48 -2.06,-1.015 -2.72,-1.591c0.194,0.78 0.858,2.36 1.388,3.471c0.87,1.589 1.185,2.972 1.145,3.04c-0.026,0.044 -0.323,-0.414 -0.761,-1.157c-1.018,-1.451 -2.949,-4.223 -3.335,-4.929c-0.437,-0.8 -0.191,-1.17 -0.191,-1.17" style="fill:#a52b00;fill-rule:nonzero;"/><path d="M112.854,37.614c0,0 4.906,-1.91 5.735,-3.966c0,0 -5.757,-4.58 1.132,-9.445l0.187,6.201c0,0 2.041,-1.969 1.951,-5.418c0,0 6.349,3.055 -1.081,8.46c0,0 -0.251,2.901 -6.932,6.404l-0.992,-2.236Z" style="fill:#f74c00;fill-rule:nonzero;"/><path d="M96.262,32.353c5.06,0 9.634,0.609 13.078,1.6l0,-0.224c3.444,1.108 5.638,2.648 5.638,4.35c0,0.268 -0.059,0.533 -0.163,0.792l0.352,0.632c0,0 0.284,0.369 -0.218,1.148c-0.442,0.687 -2.656,3.376 -3.825,4.784c-0.502,0.722 -0.843,1.166 -0.872,1.123c-0.047,-0.068 0.312,-1.423 1.308,-2.969c0.466,-0.831 1.032,-1.931 1.365,-2.743c-0.931,0.589 -2.172,1.123 -3.585,1.583l0,-0.007c-3.444,0.992 -8.018,1.6 -13.078,1.6c-5.792,0 -10.988,-0.797 -14.477,-2.053l0,-7.563c3.489,-1.256 8.685,-2.053 14.477,-2.053" style="fill:#a52b00;fill-rule:nonzero;"/><path id="path4274" d="M122.858,30.145l-0.366,1.72c-0.058,0.349 -0.213,0.717 -0.387,0.852c-0.213,0.194 -0.717,0.349 -1.123,0.349l-0.33,0l-0.29,1.588l6.507,0l0.29,-1.588l-0.523,0c-0.774,0 -1.142,-0.291 -1.123,-0.833c0,-0.116 0.02,-0.252 0.039,-0.368l0.349,-1.859c0.871,0.484 1.607,0.697 2.44,0.697c3.001,0 5.693,-2.885 5.693,-6.139c0,-2.401 -1.53,-4.105 -3.699,-4.105c-1.123,0 -1.936,0.368 -2.943,1.336l0.213,-1.162l-1.027,0c-1.452,0.465 -2.265,0.601 -3.718,0.678l-0.29,1.588l0.251,0c0.31,0 0.852,0.174 1.027,0.31c0.058,0.077 0.116,0.232 0.116,0.387c0,0.174 -0.019,0.291 -0.097,0.717l-0.725,4.097m3.068,-0.011c0.407,-1.937 0.717,-3.118 1.046,-3.912c0.562,-1.356 1.394,-2.169 2.227,-2.169c0.833,0 1.278,0.678 1.278,1.956c0,0.988 -0.329,2.324 -0.794,3.195c-0.523,1.027 -1.2,1.53 -2.014,1.53c-0.6,0 -1.239,-0.232 -1.743,-0.6Z" style="fill:#292929;fill-rule:nonzero;"/><path id="path4272" d="M123.142,28.4c-0.145,0.137 -0.435,0.212 -0.619,0.212c-0.446,0 -0.717,-0.252 -0.717,-0.659c0,-0.174 0,-0.174 0.155,-0.968l0.6,-3.389c0.116,-0.561 0.136,-0.774 0.136,-1.046c0,-1.22 -1.162,-2.091 -2.789,-2.091c-1.104,0 -2.382,0.465 -3.214,1.162l0.174,-0.988l-1.007,0c-1.472,0.465 -2.266,0.601 -3.718,0.678l-0.291,1.588l0.233,0c0.329,0 0.852,0.174 1.026,0.31c0.077,0.077 0.116,0.213 0.116,0.387c0,0.136 -0.039,0.465 -0.077,0.717l-1.143,6.216l3.06,0l1.317,-7.223c0.542,-0.426 1.239,-0.678 1.917,-0.678c0.736,0 1.181,0.348 1.181,0.949c0,0.193 0,0.232 -0.019,0.348l-0.755,4.009c-0.059,0.349 -0.097,0.658 -0.097,0.871c0,1.124 0.987,1.898 2.42,1.898c0.563,0 1.596,-0.63 1.844,-0.556" style="fill:#292929;fill-rule:nonzero;"/><path d="M73.136,39.36l3.899,-2.872c0.036,-0.128 0.073,-0.256 0.111,-0.382l-1.281,-1.856c-0.131,-0.188 -0.157,-0.434 -0.072,-0.649c0.085,-0.214 0.271,-0.368 0.491,-0.405l2.166,-0.368c0.083,-0.171 0.171,-0.34 0.26,-0.507l-0.91,-2.083c-0.094,-0.212 -0.074,-0.459 0.05,-0.651c0.124,-0.194 0.334,-0.307 0.557,-0.298l2.198,0.08c0.114,-0.148 0.229,-0.295 0.347,-0.439l-0.505,-2.233c-0.051,-0.227 0.014,-0.464 0.172,-0.629c0.157,-0.164 0.385,-0.232 0.602,-0.179l2.14,0.527c0.139,-0.123 0.28,-0.244 0.423,-0.362l-0.077,-2.292c-0.009,-0.232 0.099,-0.453 0.285,-0.582c0.186,-0.129 0.421,-0.149 0.624,-0.052l1.998,0.949c0.16,-0.092 0.322,-0.184 0.486,-0.272l0.352,-2.259c0.036,-0.229 0.183,-0.423 0.39,-0.512c0.205,-0.089 0.441,-0.06 0.621,0.076l1.781,1.336c0.175,-0.058 0.351,-0.114 0.53,-0.168l0.767,-2.142c0.078,-0.218 0.258,-0.378 0.477,-0.423c0.219,-0.045 0.444,0.031 0.596,0.2l1.498,1.677c0.182,-0.021 0.363,-0.04 0.545,-0.056l1.157,-1.95c0.117,-0.197 0.324,-0.317 0.548,-0.317c0.222,0 0.43,0.12 0.546,0.317l1.157,1.95c0.182,0.016 0.364,0.035 0.545,0.056l1.499,-1.677c0.152,-0.169 0.378,-0.245 0.596,-0.2c0.219,0.045 0.399,0.205 0.477,0.423l0.768,2.142c0.178,0.054 0.354,0.11 0.53,0.168l1.78,-1.336c0.181,-0.137 0.416,-0.165 0.622,-0.076c0.206,0.089 0.353,0.283 0.389,0.512l0.353,2.259c0.164,0.088 0.325,0.179 0.487,0.272l1.996,-0.949c0.203,-0.097 0.44,-0.077 0.625,0.052c0.185,0.129 0.294,0.35 0.285,0.582l-0.076,2.292c0.142,0.118 0.282,0.239 0.422,0.362l2.14,-0.527c0.217,-0.052 0.445,0.015 0.603,0.179c0.158,0.165 0.222,0.402 0.171,0.629l-0.504,2.233c0.117,0.144 0.233,0.291 0.346,0.439l2.198,-0.08c0.222,-0.007 0.434,0.104 0.558,0.298c0.124,0.192 0.143,0.439 0.05,0.651l-0.91,2.083c0.088,0.167 0.176,0.336 0.261,0.507l2.165,0.368c0.22,0.037 0.406,0.19 0.491,0.405c0.085,0.215 0.057,0.461 -0.072,0.649l-1.281,1.856c0.01,0.032 0.019,0.065 0.029,0.098l3.621,3.847c0,0 0.555,0.435 -0.253,1.458c-0.712,0.902 -4.371,4.476 -6.303,6.349c-0.816,0.951 -1.376,1.54 -1.434,1.489c-0.092,-0.081 0.392,-1.811 1.999,-3.841c1.239,-1.821 2.848,-4.621 2.471,-4.944c0,0 -0.429,-0.545 -1.29,-0.937c-0.032,0.025 0.032,-0.025 0,0c0,0 -18.163,8.379 -35.011,0.142c-1.925,-0.345 -3.09,0.686 -3.09,0.686c-0.402,0.233 0.639,3.113 1.494,5.019c1.164,2.165 1.335,3.854 1.236,3.913c-0.062,0.037 -0.486,-0.607 -1.089,-1.633c-1.491,-2.076 -4.308,-6.035 -4.823,-6.996c-0.585,-1.09 0,-1.396 0,-1.396" style="fill:#f74c00;fill-rule:nonzero;"/><path d="M90.005,44.667c-0.07,-0.059 -0.106,-0.094 -0.106,-0.094l5.946,-0.552c-4.853,-6.403 -8.738,-1.238 -9.151,-0.668l0,1.314l3.311,0Z" style="fill-rule:nonzero;"/><path d="M92.915,34.994c0,0 -1.815,-1.988 -3.63,0c0,0 -1.426,2.65 0,3.975c0,0 2.334,1.855 3.63,0c0,0 1.556,-1.458 0,-3.975" style="fill-rule:nonzero;"/><path d="M101.017,34.451c0,0 -3.114,-1.378 -3.964,1.699c0,0 -0.89,3.586 2.557,3.789c0,0 4.396,-0.847 1.407,-5.488" style="fill-rule:nonzero;"/><path d="M99.453,35.782c0,0.798 0.47,1.445 1.051,1.445c0.58,0 1.05,-0.647 1.05,-1.445c0,-0.798 -0.47,-1.445 -1.05,-1.445c-0.581,0 -1.051,0.647 -1.051,1.445" style="fill:#fff;fill-rule:nonzero;"/><path d="M80.892,38.366c0,0 0.65,2.59 4.694,5.311l1.133,0.266c0,0 3.669,-6.69 8.865,0.848c0,0 -1.619,-0.943 -5.961,0.206c0,0 1.997,3.057 6.02,2.963c0,0 -3.855,4.625 -9.722,-2.056c0,0 -6.203,-2.399 -6.706,-7.538l1.677,0Z" style="fill:#f74c00;fill-rule:nonzero;"/><path d="M90.814,35.731c0,0.774 0.456,1.401 1.019,1.401c0.562,0 1.018,-0.627 1.018,-1.401c0,-0.774 -0.456,-1.401 -1.018,-1.401c-0.563,0 -1.019,0.627 -1.019,1.401" style="fill:#fff;fill-rule:nonzero;"/><path d="M44.548,47.8l24.638,0l0.631,-19.897l-20.796,-0.347c0,0 6.695,11.181 -4.473,20.244Z" style="fill:#e6e6e6;stroke:#836e9f;stroke-width:1px;"/><path d="M89.012,65.899l7.016,0.134l16.972,-9.257l0,-6.362l-18.273,0.294l-0.204,2.191l-3.479,-0.098l-0.072,-1.804l-6.75,-3.197l-12.604,5.484l17.075,9.423l0.319,3.192Z" style="fill:#e6e6e6;stroke:#836e9f;stroke-width:1px;"/><path d="M89.012,2.334l7.016,-0.135l16.972,9.258l0,6.361l-18.273,-0.293l-0.204,-2.191l-3.479,0.097l-0.072,1.805l-6.75,3.197l-14.405,-3.687l18.876,-11.221l0.319,-3.191Z" style="fill:#e6e6e6;stroke:#836e9f;stroke-width:1px;"/><path d="M64.922,52.896l0.06,-32.463l3.053,-5.212l16.004,5.212l3.065,4.291l-0.007,17.981l-2.045,5.095l-17.683,7.216l-2.447,-2.12Z" style="fill:#f2f2f2;stroke:#836e9f;stroke-width:1px;"/><path d="M33.835,14.325l13.343,7.766l3.613,5.465c0,0 3.586,5.29 1.867,11.543c-1.019,3.708 -1.432,5.424 -8.035,8.908c-3.921,2.069 -4.325,1.695 -5.514,1.637c-1.603,-0.079 -3.79,0.311 -7.281,-0.561l-30.418,-14.953" style="fill:#f2f2f2;stroke:#836e9f;stroke-width:1px;"/><ellipse cx="41.258" cy="37.678" rx="4.788" ry="4.646" style="stroke:#836e9f;stroke-width:1px;"/><ellipse cx="71.618" cy="45.899" rx="2.451" ry="2.368" style="stroke:#836e9f;stroke-width:1px;"/><ellipse cx="71.618" cy="23.32" rx="2.451" ry="2.368" style="stroke:#836e9f;stroke-width:1px;"/><path d="M119.923,30.753l-0.002,-0.634l0.002,-5.817l-0.19,-0.058l0.19,6.509Z" style="fill:#292929;stroke:#292929;stroke-width:0.05px;"/><path d="M112.854,37.614c0,0 4.906,-1.91 5.735,-3.966c0,0 -5.757,-4.58 1.132,-9.445l0.187,6.201c0,0 0.619,5.943 -6.062,9.446l-0.992,-2.236Z" style="fill:#f74c00;fill-rule:nonzero;"/></g></svg>