<?xml version="1.0" encoding="UTF-8" standalone="no"?>
<!DOCTYPE svg PUBLIC "-//W3C//DTD SVG 1.1//EN" "http://www.w3.org/Graphics/SVG/1.1/DTD/svg11.dtd">
<svg width="600px" height="303px" version="1.1" xmlns="http://www.w3.org/2000/svg" xmlns:xlink="http://www.w3.org/1999/xlink" xml:space="preserve" xmlns:serif="http://www.serif.com/" style="fill-rule:evenodd;clip-rule:evenodd;stroke-linecap:round;stroke-linejoin:round;stroke-miterlimit:1.5;">
    <g id="Layer-1" serif:id="Layer 1" transform="matrix(1,0,0,1,232.5,117.111)">
        <g transform="matrix(4.43649,0,0,4.43649,-231.326,-120.791)">
            <path d="M33.803,16.898L46.895,23.639L50.508,29.105C50.508,29.105 50.515,29.115 50.528,29.134L64.686,29.37L69.167,27.082L67.752,16.769L70.561,17.684L88.41,7.073L88.729,3.882L95.745,3.747L112.717,13.005L112.717,19.367L94.444,19.073L94.24,16.882L90.761,16.98L90.689,18.784L83.939,21.981L83.084,21.762L83.756,21.981L86.821,26.273L86.814,44.253L84.769,49.348L84.323,49.53L90.689,52.545L90.761,54.349L94.24,54.447L94.444,52.256L112.717,51.962L112.717,58.324L95.745,67.582L88.729,67.447L88.41,64.256L71.335,54.832L71.389,54.809L67.086,56.565L64.639,54.444L64.649,49.348L44.73,49.348C44.603,49.416 44.473,49.485 44.341,49.555C40.419,51.625 40.015,51.251 38.827,51.192C37.224,51.114 35.036,51.503 31.546,50.631L0.679,35.731L33.803,16.898Z" style="fill:rgb(41,41,41);stroke:rgb(41,41,41);stroke-width:0.95px;"/>
        </g>
        <g transform="matrix(4.43649,0,0,4.43649,-231.326,-120.791)">
            <path d="M76.629,41.114C76.425,41.237 76.318,41.332 76.318,41.332C75.916,41.565 76.957,44.445 77.812,46.351C78.976,48.516 79.147,50.205 79.048,50.264C78.986,50.301 78.562,49.657 77.959,48.631C76.468,46.555 73.651,42.596 73.136,41.635C72.551,40.545 73.136,40.239 73.136,40.239L77.035,37.367C77.071,37.239 77.108,37.112 77.146,36.985L75.865,35.129C75.734,34.941 75.708,34.695 75.793,34.48C75.878,34.266 76.064,34.112 76.284,34.075L78.45,33.707C78.533,33.536 78.621,33.367 78.71,33.2L77.8,31.117C77.706,30.905 77.726,30.658 77.85,30.466C77.974,30.272 78.184,30.159 78.407,30.168L80.605,30.248C80.719,30.1 80.834,29.953 80.952,29.809L80.447,27.576C80.396,27.349 80.461,27.112 80.619,26.947C80.776,26.783 81.004,26.715 81.221,26.769L83.361,27.295C83.5,27.172 83.641,27.051 83.784,26.933L83.707,24.641C83.698,24.409 83.806,24.188 83.992,24.06C84.178,23.93 84.413,23.91 84.616,24.007L86.614,24.956C86.774,24.864 86.936,24.772 87.1,24.684L87.452,22.425C87.488,22.197 87.635,22.002 87.842,21.913C88.047,21.824 88.283,21.853 88.463,21.989L90.244,23.325C90.419,23.267 90.595,23.211 90.774,23.157L91.541,21.016C91.619,20.797 91.799,20.637 92.018,20.592C92.237,20.547 92.462,20.623 92.614,20.792L94.112,22.469C94.294,22.448 94.475,22.429 94.657,22.413L95.814,20.464C95.931,20.266 96.138,20.146 96.362,20.146C96.584,20.146 96.792,20.266 96.908,20.464L98.065,22.413C98.247,22.429 98.429,22.448 98.61,22.469L100.109,20.792C100.261,20.623 100.487,20.547 100.705,20.592C100.924,20.637 101.104,20.797 101.182,21.016L101.95,23.157C102.128,23.211 102.304,23.267 102.48,23.325L104.26,21.989C104.441,21.853 104.676,21.824 104.882,21.913C105.088,22.002 105.235,22.197 105.271,22.425L105.624,24.684C105.788,24.772 105.949,24.863 106.111,24.956L108.107,24.007C108.31,23.91 108.547,23.93 108.732,24.06C108.917,24.188 109.026,24.409 109.017,24.641L108.941,26.933C109.083,27.051 109.223,27.172 109.363,27.295L111.503,26.769C111.72,26.716 111.948,26.783 112.106,26.947C112.264,27.112 112.328,27.349 112.277,27.576L111.773,29.809C111.89,29.954 112.006,30.1 112.119,30.248L114.317,30.168C114.539,30.162 114.751,30.272 114.875,30.466C114.999,30.658 115.018,30.905 114.925,31.117L114.015,33.2C114.103,33.367 114.191,33.536 114.276,33.707L116.441,34.075C116.661,34.112 116.847,34.265 116.932,34.48C117.017,34.695 116.989,34.941 116.86,35.129L115.579,36.985C115.589,37.018 115.598,37.051 115.608,37.083L115.661,37.14C116.916,36.422 118.201,35.491 118.589,34.527C118.589,34.527 112.832,29.947 119.721,25.082L119.908,31.283C119.908,31.283 121.949,29.314 121.859,25.866C121.859,25.866 128.208,28.92 120.778,34.325C120.778,34.325 120.618,36.179 117.141,38.712L119.229,40.931C119.229,40.931 119.784,41.366 118.976,42.388C118.264,43.29 114.605,46.865 112.673,48.737C111.857,49.688 111.297,50.277 111.239,50.226C111.147,50.145 111.631,48.415 113.238,46.386C114.477,44.565 116.086,41.764 115.709,41.441C115.709,41.441 115.542,41.23 115.208,40.975C115.167,41.129 115.089,41.314 114.949,41.531C114.507,42.217 112.293,44.906 111.124,46.314C110.622,47.036 110.281,47.48 110.252,47.437C110.205,47.369 110.564,46.014 111.56,44.468C112.026,43.638 112.592,42.537 112.925,41.725C111.994,42.314 110.753,42.848 109.34,43.308L109.34,43.301C105.896,44.293 101.322,44.901 96.262,44.901C96.122,44.901 95.983,44.901 95.844,44.9L95.076,44.971C95.244,45.189 95.413,45.422 95.584,45.67C95.584,45.67 93.965,44.728 89.623,45.876C89.623,45.876 91.62,48.933 95.643,48.839C95.643,48.839 91.788,53.464 85.921,46.783C85.921,46.783 82.115,45.311 80.224,42.203C79.462,41.826 78.825,41.42 78.334,40.991C78.528,41.772 79.192,43.351 79.722,44.462C80.592,46.051 80.907,47.434 80.867,47.503C80.841,47.546 80.544,47.088 80.106,46.346C79.088,44.894 77.157,42.122 76.771,41.416C76.712,41.308 76.665,41.207 76.629,41.114ZM84.285,43.597C84.674,43.912 85.106,44.233 85.586,44.556L86.694,44.816L86.694,44.233C86.713,44.206 86.74,44.169 86.775,44.123C85.899,43.968 85.066,43.792 84.285,43.597Z" style="fill:rgb(41,41,41);fill-rule:nonzero;"/>
        </g>
        <g transform="matrix(4.43649,0,0,4.43649,-231.326,-120.791)">
            <path d="M76.58,39.367L77.173,38.138C77.17,38.092 77.168,38.045 77.168,37.998C77.168,36.605 78.616,35.321 81.054,34.293L81.054,41.703C79.917,41.223 78.994,40.688 78.334,40.112C78.528,40.892 79.192,42.472 79.722,43.583C80.592,45.172 80.907,46.555 80.867,46.623C80.841,46.667 80.544,46.209 80.106,45.466C79.088,44.015 77.157,41.243 76.771,40.537C76.334,39.737 76.58,39.367 76.58,39.367" style="fill:rgb(165,43,0);fill-rule:nonzero;"/>
        </g>
        <g transform="matrix(4.43649,0,0,4.43649,-231.326,-120.791)">
            <path d="M112.854,37.614C112.854,37.614 117.76,35.704 118.589,33.648C118.589,33.648 112.832,29.068 119.721,24.203L119.908,30.404C119.908,30.404 121.949,28.435 121.859,24.986C121.859,24.986 128.208,28.041 120.778,33.446C120.778,33.446 120.527,36.347 113.846,39.85L112.854,37.614Z" style="fill:rgb(247,76,0);fill-rule:nonzero;"/>
        </g>
        <g transform="matrix(4.43649,0,0,4.43649,-231.326,-120.791)">
            <path d="M96.262,32.353C101.322,32.353 105.896,32.962 109.34,33.953L109.34,33.729C112.784,34.837 114.978,36.377 114.978,38.079C114.978,38.347 114.919,38.612 114.815,38.871L115.167,39.503C115.167,39.503 115.451,39.872 114.949,40.651C114.507,41.338 112.293,44.027 111.124,45.435C110.622,46.157 110.281,46.601 110.252,46.558C110.205,46.49 110.564,45.135 111.56,43.589C112.026,42.758 112.592,41.658 112.925,40.846C111.994,41.435 110.753,41.969 109.34,42.429L109.34,42.422C105.896,43.414 101.322,44.022 96.262,44.022C90.47,44.022 85.274,43.225 81.785,41.969L81.785,34.406C85.274,33.15 90.47,32.353 96.262,32.353" style="fill:rgb(165,43,0);fill-rule:nonzero;"/>
        </g>
        <g id="path4274" transform="matrix(4.43649,0,0,4.43649,-231.326,-120.791)">
            <path d="M122.858,30.145L122.492,31.865C122.434,32.214 122.279,32.582 122.105,32.717C121.892,32.911 121.388,33.066 120.982,33.066L120.652,33.066L120.362,34.654L126.869,34.654L127.159,33.066L126.636,33.066C125.862,33.066 125.494,32.775 125.513,32.233C125.513,32.117 125.533,31.981 125.552,31.865L125.901,30.006C126.772,30.49 127.508,30.703 128.341,30.703C131.342,30.703 134.034,27.818 134.034,24.564C134.034,22.163 132.504,20.459 130.335,20.459C129.212,20.459 128.399,20.827 127.392,21.795L127.605,20.633L126.578,20.633C125.126,21.098 124.313,21.234 122.86,21.311L122.57,22.899L122.821,22.899C123.131,22.899 123.673,23.073 123.848,23.209C123.906,23.286 123.964,23.441 123.964,23.596C123.964,23.77 123.945,23.887 123.867,24.313L123.142,28.41M126.21,28.399C126.617,26.462 126.927,25.281 127.256,24.487C127.818,23.131 128.65,22.318 129.483,22.318C130.316,22.318 130.761,22.996 130.761,24.274C130.761,25.262 130.432,26.598 129.967,27.469C129.444,28.496 128.767,28.999 127.953,28.999C127.353,28.999 126.714,28.767 126.21,28.399Z" style="fill:rgb(41,41,41);fill-rule:nonzero;"/>
        </g>
        <g id="path4272" transform="matrix(4.43649,0,0,4.43649,-231.326,-120.791)">
            <path d="M123.142,28.4C122.997,28.537 122.707,28.612 122.523,28.612C122.077,28.612 121.806,28.36 121.806,27.953C121.806,27.779 121.806,27.779 121.961,26.985L122.561,23.596C122.677,23.035 122.697,22.822 122.697,22.55C122.697,21.33 121.535,20.459 119.908,20.459C118.804,20.459 117.526,20.924 116.694,21.621L116.868,20.633L115.861,20.633C114.389,21.098 113.595,21.234 112.143,21.311L111.852,22.899L112.085,22.899C112.414,22.899 112.937,23.073 113.111,23.209C113.188,23.286 113.227,23.422 113.227,23.596C113.227,23.732 113.188,24.061 113.15,24.313L112.007,30.529L115.067,30.529L116.384,23.306C116.926,22.88 117.623,22.628 118.301,22.628C119.037,22.628 119.482,22.976 119.482,23.577C119.482,23.77 119.482,23.809 119.463,23.925L118.708,27.934C118.649,28.283 118.611,28.592 118.611,28.805C118.611,29.929 119.598,30.703 121.031,30.703C121.594,30.703 122.627,30.073 122.875,30.147" style="fill:rgb(41,41,41);fill-rule:nonzero;"/>
        </g>
        <g transform="matrix(4.43649,0,0,4.43649,-231.326,-120.791)">
            <path d="M73.136,39.36L77.035,36.488C77.071,36.36 77.108,36.232 77.146,36.106L75.865,34.25C75.734,34.062 75.708,33.816 75.793,33.601C75.878,33.387 76.064,33.233 76.284,33.196L78.45,32.828C78.533,32.657 78.621,32.488 78.71,32.321L77.8,30.238C77.706,30.026 77.726,29.779 77.85,29.587C77.974,29.393 78.184,29.28 78.407,29.289L80.605,29.369C80.719,29.221 80.834,29.074 80.952,28.93L80.447,26.697C80.396,26.47 80.461,26.233 80.619,26.068C80.776,25.904 81.004,25.836 81.221,25.889L83.361,26.416C83.5,26.293 83.641,26.172 83.784,26.054L83.707,23.762C83.698,23.53 83.806,23.309 83.992,23.18C84.178,23.051 84.413,23.031 84.616,23.128L86.614,24.077C86.774,23.985 86.936,23.893 87.1,23.805L87.452,21.546C87.488,21.317 87.635,21.123 87.842,21.034C88.047,20.945 88.283,20.974 88.463,21.11L90.244,22.446C90.419,22.388 90.595,22.332 90.774,22.278L91.541,20.136C91.619,19.918 91.799,19.758 92.018,19.713C92.237,19.668 92.462,19.744 92.614,19.913L94.112,21.59C94.294,21.569 94.475,21.55 94.657,21.534L95.814,19.584C95.931,19.387 96.138,19.267 96.362,19.267C96.584,19.267 96.792,19.387 96.908,19.584L98.065,21.534C98.247,21.55 98.429,21.569 98.61,21.59L100.109,19.913C100.261,19.744 100.487,19.668 100.705,19.713C100.924,19.758 101.104,19.918 101.182,20.136L101.95,22.278C102.128,22.332 102.304,22.388 102.48,22.446L104.26,21.11C104.441,20.973 104.676,20.945 104.882,21.034C105.088,21.123 105.235,21.317 105.271,21.546L105.624,23.805C105.788,23.893 105.949,23.984 106.111,24.077L108.107,23.128C108.31,23.031 108.547,23.051 108.732,23.18C108.917,23.309 109.026,23.53 109.017,23.762L108.941,26.054C109.083,26.172 109.223,26.293 109.363,26.416L111.503,25.889C111.72,25.837 111.948,25.904 112.106,26.068C112.264,26.233 112.328,26.47 112.277,26.697L111.773,28.93C111.89,29.074 112.006,29.221 112.119,29.369L114.317,29.289C114.539,29.282 114.751,29.393 114.875,29.587C114.999,29.779 115.018,30.026 114.925,30.238L114.015,32.321C114.103,32.488 114.191,32.657 114.276,32.828L116.441,33.196C116.661,33.233 116.847,33.386 116.932,33.601C117.017,33.816 116.989,34.062 116.86,34.25L115.579,36.106C115.589,36.138 115.598,36.171 115.608,36.204L119.229,40.051C119.229,40.051 119.784,40.486 118.976,41.509C118.264,42.411 114.605,45.985 112.673,47.858C111.857,48.809 111.297,49.398 111.239,49.347C111.147,49.266 111.631,47.536 113.238,45.506C114.477,43.685 116.086,40.885 115.709,40.562C115.709,40.562 115.28,40.017 114.419,39.625C114.387,39.65 114.451,39.6 114.419,39.625C114.419,39.625 96.256,48.004 79.408,39.767C77.483,39.422 76.318,40.453 76.318,40.453C75.916,40.686 76.957,43.566 77.812,45.472C78.976,47.637 79.147,49.326 79.048,49.385C78.986,49.422 78.562,48.778 77.959,47.752C76.468,45.676 73.651,41.717 73.136,40.756C72.551,39.666 73.136,39.36 73.136,39.36" style="fill:rgb(247,76,0);fill-rule:nonzero;"/>
        </g>
        <g transform="matrix(4.43649,0,0,4.43649,-231.326,-120.791)">
            <path d="M90.005,44.667C89.935,44.608 89.899,44.573 89.899,44.573L95.845,44.021C90.992,37.618 87.107,42.783 86.694,43.353L86.694,44.667L90.005,44.667Z" style="fill-rule:nonzero;"/>
        </g>
        <g transform="matrix(4.43649,0,0,4.43649,-231.326,-120.791)">
            <path d="M92.915,34.994C92.915,34.994 91.1,33.006 89.285,34.994C89.285,34.994 87.859,37.644 89.285,38.969C89.285,38.969 91.619,40.824 92.915,38.969C92.915,38.969 94.471,37.511 92.915,34.994" style="fill-rule:nonzero;"/>
        </g>
        <g transform="matrix(4.43649,0,0,4.43649,-231.326,-120.791)">
            <path d="M101.017,34.451C101.017,34.451 97.903,33.073 97.053,36.15C97.053,36.15 96.163,39.736 99.61,39.939C99.61,39.939 104.006,39.092 101.017,34.451" style="fill-rule:nonzero;"/>
        </g>
        <g transform="matrix(4.43649,0,0,4.43649,-231.326,-120.791)">
            <path d="M99.453,35.782C99.453,36.58 99.923,37.227 100.504,37.227C101.084,37.227 101.554,36.58 101.554,35.782C101.554,34.984 101.084,34.337 100.504,34.337C99.923,34.337 99.453,34.984 99.453,35.782" style="fill:white;fill-rule:nonzero;"/>
        </g>
        <g transform="matrix(4.43649,0,0,4.43649,-231.326,-120.791)">
            <path d="M80.892,38.366C80.892,38.366 81.542,40.956 85.586,43.677L86.719,43.943C86.719,43.943 90.388,37.253 95.584,44.791C95.584,44.791 93.965,43.848 89.623,44.997C89.623,44.997 91.62,48.054 95.643,47.96C95.643,47.96 91.788,52.585 85.921,45.904C85.921,45.904 79.718,43.505 79.215,38.366L80.892,38.366Z" style="fill:rgb(247,76,0);fill-rule:nonzero;"/>
        </g>
        <g transform="matrix(4.43649,0,0,4.43649,-231.326,-120.791)">
            <path d="M90.814,35.731C90.814,36.505 91.27,37.132 91.833,37.132C92.395,37.132 92.851,36.505 92.851,35.731C92.851,34.957 92.395,34.33 91.833,34.33C91.27,34.33 90.814,34.957 90.814,35.731" style="fill:white;fill-rule:nonzero;"/>
        </g>
        <g transform="matrix(4.43649,0,0,4.43649,-231.326,-120.791)">
            <path d="M44.548,47.8L69.186,47.8L69.817,27.903L49.021,27.556C49.021,27.556 55.716,38.737 44.548,47.8Z" style="fill:rgb(230,230,230);stroke:rgb(131,110,159);stroke-width:1px;"/>
        </g>
        <g transform="matrix(4.43649,0,0,4.43649,-231.326,-120.791)">
            <path d="M89.012,65.899L96.028,66.033L113,56.776L113,50.414L94.727,50.708L94.523,52.899L91.044,52.801L90.972,50.997L84.222,47.8L71.618,53.284L88.693,62.707L89.012,65.899Z" style="fill:rgb(230,230,230);stroke:rgb(131,110,159);stroke-width:1px;"/>
        </g>
        <g transform="matrix(4.43649,0,0,4.43649,-231.326,-120.791)">
            <path d="M89.012,2.334L96.028,2.199L113,11.457L113,17.818L94.727,17.525L94.523,15.334L91.044,15.431L90.972,17.236L84.222,20.433L69.817,16.746L88.693,5.525L89.012,2.334Z" style="fill:rgb(230,230,230);stroke:rgb(131,110,159);stroke-width:1px;"/>
        </g>
        <g transform="matrix(4.43649,0,0,4.43649,-231.326,-120.791)">
            <path d="M64.922,52.896L64.982,20.433L68.035,15.221L84.039,20.433L87.104,24.724L87.097,42.705L85.052,47.8L67.369,55.016L64.922,52.896Z" style="fill:rgb(242,242,242);stroke:rgb(131,110,159);stroke-width:1px;"/>
        </g>
        <g transform="matrix(4.43649,0,0,4.43649,-231.326,-120.791)">
            <path d="M33.835,14.325L47.178,22.091L50.791,27.556C50.791,27.556 54.377,32.846 52.658,39.099C51.639,42.807 51.226,44.523 44.623,48.007C40.702,50.076 40.298,49.702 39.109,49.644C37.506,49.565 35.319,49.955 31.828,49.083L1.41,34.13" style="fill:rgb(242,242,242);stroke:rgb(131,110,159);stroke-width:1px;"/>
        </g>
        <g transform="matrix(4.43649,0,0,4.43649,-231.326,-120.791)">
            <ellipse cx="41.258" cy="37.678" rx="4.788" ry="4.646" style="stroke:rgb(131,110,159);stroke-width:1px;"/>
        </g>
        <g transform="matrix(4.43649,0,0,4.43649,-231.326,-120.791)">
            <ellipse cx="71.618" cy="45.899" rx="2.451" ry="2.368" style="stroke:rgb(131,110,159);stroke-width:1px;"/>
        </g>
        <g transform="matrix(4.43649,0,0,4.43649,-231.326,-120.791)">
            <ellipse cx="71.618" cy="23.32" rx="2.451" ry="2.368" style="stroke:rgb(131,110,159);stroke-width:1px;"/>
        </g>
        <g transform="matrix(4.43649,0,0,4.43649,-231.326,-120.791)">
            <path d="M119.923,30.753L119.921,30.119L119.923,24.302L119.733,24.244L119.923,30.753Z" style="fill:rgb(41,41,41);stroke:rgb(41,41,41);stroke-width:0.05px;"/>
        </g>
        <g transform="matrix(4.43649,0,0,4.43649,-231.326,-120.791)">
            <path d="M112.854,37.614C112.854,37.614 117.76,35.704 118.589,33.648C118.589,33.648 112.832,29.068 119.721,24.203L119.908,30.404C119.908,30.404 120.527,36.347 113.846,39.85L112.854,37.614Z" style="fill:rgb(247,76,0);fill-rule:nonzero;"/>
        </g>
    </g>
</svg>
