<?xml version="1.0" encoding="UTF-8" standalone="no"?>
<!DOCTYPE svg PUBLIC "-//W3C//DTD SVG 1.1//EN" "http://www.w3.org/Graphics/SVG/1.1/DTD/svg11.dtd">
<svg width="60px" height="60px" version="1.1" xmlns="http://www.w3.org/2000/svg" xmlns:xlink="http://www.w3.org/1999/xlink" xml:space="preserve" xmlns:serif="http://www.serif.com/" style="fill-rule:evenodd;clip-rule:evenodd;stroke-linejoin:round;stroke-miterlimit:1.41421;">
    <g transform="matrix(1,0,0,1,-226,-226)">
        <g transform="matrix(0.130122,0,0,0.130122,222.689,218.077)">
            <path d="M303.413,102.881L304,232.828L438.953,437.585C459.988,469.499 437.098,512 398.875,512L113.124,512C74.901,512 52.012,469.499 73.046,437.585L208,232.828L207.413,102.881L303.413,102.881Z" style="fill:rgb(247,224,255);fill-rule:nonzero;stroke:rgb(110,85,222);stroke-width:15.37px;"/>
        </g>
        <g transform="matrix(1.11038,0,0,1.11038,222.689,222.689)">
            <path d="M13.257,53.034C12.204,53.034 11.277,52.481 10.78,51.554C10.28,50.631 10.328,49.554 10.908,48.674L17.643,38.456C17.816,38.193 18.111,38.034 18.426,38.034L41.574,38.034C41.889,38.034 42.184,38.193 42.357,38.456L49.092,48.674C49.672,49.554 49.72,50.631 49.219,51.557C48.723,52.481 47.796,53.034 46.743,53.034L13.257,53.034Z" style="fill:rgb(97,209,128);fill-rule:nonzero;stroke:rgb(110,85,222);stroke-width:0.9px;"/>
        </g>
        <g transform="matrix(0.130122,0,0,0.130122,222.66,227.3)">
            <path d="M304,32L208,32C199.163,32 192,24.837 192,16C192,7.163 199.163,0 208,0L304,0C312.837,0 320,7.163 320,16C320,24.837 312.836,32 304,32Z" style="fill:rgb(247,224,255);fill-rule:nonzero;stroke:rgb(110,85,222);stroke-width:15.37px;"/>
        </g>
        <g transform="matrix(0.130122,0,0,0.130122,222.689,218.077)">
            <circle cx="200" cy="416" r="16" style="fill:rgb(211,255,224);stroke:rgb(110,85,222);stroke-width:3.07px;"/>
        </g>
        <g transform="matrix(0.130122,0,0,0.130122,222.689,218.077)">
            <circle cx="328" cy="432" r="16" style="fill:rgb(211,255,224);stroke:rgb(110,85,222);stroke-width:3.07px;"/>
        </g>
        <g transform="matrix(0.130122,0,0,0.130122,222.689,218.077)">
            <path d="M280.023,416C277.859,416 275.859,415.117 274.335,413.68C272.819,412.16 272.022,410.078 272.022,408C272.022,405.918 272.819,403.84 274.335,402.32C277.296,399.359 282.655,399.359 285.616,402.32C287.139,403.84 288.022,405.84 288.022,408C288.022,410.16 287.139,412.16 285.616,413.68C284.179,415.117 282.101,416 280.023,416Z" style="fill:rgb(211,255,224);fill-rule:nonzero;stroke:rgb(110,85,222);stroke-width:3.07px;"/>
        </g>
        <g transform="matrix(0.130122,0,0,0.130122,222.689,218.077)">
            <path d="M231.781,328C229.617,328 227.617,327.117 226.093,325.68C224.577,324.16 223.78,322.078 223.78,320C223.78,317.918 224.577,315.84 226.093,314.32C229.054,311.359 234.335,311.359 237.374,314.32C238.897,315.84 239.78,317.918 239.78,320C239.78,322.078 238.897,324.16 237.46,325.68C235.937,327.117 233.859,328 231.781,328Z" style="fill:rgb(211,255,224);fill-rule:nonzero;stroke:rgb(110,85,222);stroke-width:3.07px;"/>
        </g>
        <g transform="matrix(0.130122,0,0,0.130122,222.689,218.077)">
            <path d="M279.781,264C277.617,264 275.617,263.117 274.093,261.68C272.577,260.16 271.78,258.078 271.78,256C271.78,253.918 272.577,251.84 274.093,250.32C277.054,247.359 282.335,247.359 285.374,250.32C286.897,251.84 287.78,253.918 287.78,256C287.78,258.078 286.897,260.16 285.374,261.68C283.937,263.117 281.859,264 279.781,264Z" style="fill:rgb(211,255,224);fill-rule:nonzero;stroke:rgb(110,85,222);stroke-width:3.07px;"/>
        </g>
        <g transform="matrix(0.130122,0,0,0.130122,222.689,218.077)">
            <path d="M231.781,208C229.617,208 227.539,207.117 226.093,205.598C224.577,204.16 223.78,202.078 223.78,200C223.78,197.918 224.577,195.84 226.093,194.32C229.054,191.359 234.413,191.359 237.374,194.32C238.897,195.84 239.78,197.918 239.78,200C239.78,202.078 238.897,204.16 237.374,205.68C235.937,207.117 233.859,208 231.781,208Z" style="fill:rgb(211,255,224);fill-rule:nonzero;stroke:rgb(110,85,222);stroke-width:3.07px;"/>
        </g>
        <g transform="matrix(0.130122,0,0,0.130122,222.689,218.077)">
            <path d="M231.781,463.9C229.617,463.9 227.617,463.017 226.093,461.58C224.577,460.06 223.78,457.978 223.78,455.9C223.78,453.818 224.577,451.74 226.093,450.22C229.054,447.259 234.413,447.259 237.374,450.22C238.897,451.74 239.78,453.818 239.78,455.9C239.78,457.978 238.897,460.06 237.374,461.58C235.937,463.017 233.859,463.9 231.781,463.9Z" style="fill:rgb(211,255,224);fill-rule:nonzero;stroke:rgb(110,85,222);stroke-width:3.07px;"/>
        </g>
        <g transform="matrix(0.130122,0,0,0.130122,222.689,218.077)">
            <path d="M152.023,456C149.859,456 147.781,455.117 146.335,453.68C144.819,452.16 144.022,450.078 144.022,448C144.022,445.918 144.819,443.84 146.335,442.32C149.296,439.359 154.655,439.359 157.616,442.32C159.139,443.84 160.022,445.918 160.022,448C160.022,450.078 159.139,452.16 157.616,453.68C156.179,455.117 154.101,456 152.023,456Z" style="fill:rgb(211,255,224);fill-rule:nonzero;stroke:rgb(110,85,222);stroke-width:3.07px;"/>
        </g>
    </g>
</svg>
