<?xml version="1.0" encoding="UTF-8" standalone="no"?><!DOCTYPE svg PUBLIC "-//W3C//DTD SVG 1.1//EN" "http://www.w3.org/Graphics/SVG/1.1/DTD/svg11.dtd"><svg width="60px" height="60px" version="1.1" xmlns="http://www.w3.org/2000/svg" xmlns:xlink="http://www.w3.org/1999/xlink" xml:space="preserve" xmlns:serif="http://www.serif.com/" style="fill-rule:evenodd;clip-rule:evenodd;stroke-linecap:round;stroke-linejoin:round;stroke-miterlimit:1.5;"><path d="M6.667,57.741l48.584,-0.004l2.912,-3.202l-1.072,-4.283l-3.247,-1.368l-3.054,-0.017l0,-12.367l-9.202,-0.151l-0.217,12.41l-12.053,0.034l0,-18.793l-2.233,-3.173l-3.447,-2.239l-7.953,-7.771l0,-1.333l24.946,-2.313l1.866,2.183l0,4.306l6.816,0.998l0,-5.213l3.681,-5.445l-1.068,-4.544l-4.189,-3.059l-4.104,0.035l-3.24,3.024l-1.141,0.917l-28.015,0.651l-5.776,0.438l-3.205,4.811l0,4.544l4.192,2.736l3.557,0.835l4.544,6.847l-1.38,4.105l0,17.491l-7.708,0.353l-3.205,3.079l1.027,3.871l3.384,1.607Z" style="fill:#d3ffe0;stroke:#000;stroke-width:0.75px;"/><path d="M50.79,52.263c-0.627,0 -1.136,0.509 -1.136,1.136c0,0.627 0.509,1.136 1.136,1.136c0.627,0 1.136,-0.509 1.136,-1.136c0,-0.627 -0.509,-1.136 -1.136,-1.136Z" style="fill:#61d180;fill-rule:nonzero;stroke:#6e55de;stroke-width:0.4px;stroke-linecap:butt;stroke-miterlimit:1.41421;"/><path d="M43.633,52.263c-0.627,0 -1.136,0.509 -1.136,1.136c0,0.627 0.509,1.136 1.136,1.136c0.627,0 1.136,-0.509 1.136,-1.136c0,-0.627 -0.509,-1.136 -1.136,-1.136Z" style="fill:#61d180;fill-rule:nonzero;stroke:#6e55de;stroke-width:0.4px;stroke-linecap:butt;stroke-miterlimit:1.41421;"/><path d="M36.817,52.263c-0.628,0 -1.137,0.509 -1.137,1.136c0,0.627 0.509,1.136 1.137,1.136c0.627,0 1.136,-0.509 1.136,-1.136c0,-0.627 -0.509,-1.136 -1.136,-1.136Z" style="fill:#61d180;fill-rule:nonzero;stroke:#6e55de;stroke-width:0.4px;stroke-linecap:butt;stroke-miterlimit:1.41421;"/><path d="M29.318,52.263c-0.627,0 -1.136,0.509 -1.136,1.136c0,0.627 0.509,1.136 1.136,1.136c0.627,0 1.136,-0.509 1.136,-1.136c0,-0.627 -0.509,-1.136 -1.136,-1.136Z" style="fill:#61d180;fill-rule:nonzero;stroke:#6e55de;stroke-width:0.4px;stroke-linecap:butt;stroke-miterlimit:1.41421;"/><path d="M22.502,52.263c-0.627,0 -1.136,0.509 -1.136,1.136c0,0.627 0.509,1.136 1.136,1.136c0.627,0 1.136,-0.509 1.136,-1.136c0,-0.627 -0.509,-1.136 -1.136,-1.136Z" style="fill:#61d180;fill-rule:nonzero;stroke:#6e55de;stroke-width:0.4px;stroke-linecap:butt;stroke-miterlimit:1.41421;"/><path d="M15.685,52.263c-0.627,0 -1.136,0.509 -1.136,1.136c0,0.627 0.509,1.136 1.136,1.136c0.627,0 1.136,-0.509 1.136,-1.136c0,-0.627 -0.509,-1.136 -1.136,-1.136Z" style="fill:#61d180;fill-rule:nonzero;stroke:#6e55de;stroke-width:0.4px;stroke-linecap:butt;stroke-miterlimit:1.41421;"/><path d="M8.869,52.263c-0.627,0 -1.136,0.509 -1.136,1.136c0,0.627 0.509,1.136 1.136,1.136c0.627,0 1.136,-0.509 1.136,-1.136c0,-0.627 -0.509,-1.136 -1.136,-1.136Z" style="fill:#61d180;fill-rule:nonzero;stroke:#6e55de;stroke-width:0.4px;stroke-linecap:butt;stroke-miterlimit:1.41421;"/><path d="M53.403,47.709l-1.477,0l0,-11.579c0,-0.627 -0.508,-1.136 -1.136,-1.136l-9.429,0c-0.628,0 -1.136,0.509 -1.136,1.136l0,11.579l-9.771,0l0,-14.987c0,-1.997 -0.635,-3.893 -1.838,-5.481c-1.105,-1.46 -2.653,-2.567 -4.381,-3.143l-7.456,-7.094l23.214,-2.824c0.408,0.456 0.866,0.86 1.368,1.209l0,3.7l-1.136,0c-0.431,0 -0.824,0.243 -1.017,0.628l-2.272,4.544c-0.218,0.438 -0.133,0.966 0.213,1.312l4.544,4.544c0.444,0.444 1.163,0.444 1.607,0c0.444,-0.444 0.444,-1.163 0,-1.607l-3.965,-3.965l1.592,-3.184l9.956,0l1.592,3.184l-3.965,3.965c-0.444,0.444 -0.444,1.163 0,1.607c0.222,0.222 0.513,0.333 0.803,0.333c0.291,0 0.582,-0.111 0.804,-0.333l4.544,-4.544c0.346,-0.346 0.432,-0.874 0.213,-1.312l-2.272,-4.544c-0.193,-0.385 -0.586,-0.628 -1.017,-0.628l-1.136,0l0,-3.7c2.118,-1.478 3.409,-3.92 3.409,-6.525c0,-4.385 -3.568,-7.952 -7.953,-7.952c-2.952,0 -5.625,1.619 -7.003,4.182l-27.684,0.59c-0.1,0.002 -0.195,0.018 -0.287,0.044c-0.671,-0.18 -1.362,-0.272 -2.062,-0.272c-4.385,0 -7.953,3.568 -7.953,7.953c0,4.236 3.331,7.709 7.511,7.939l5.165,6.666c-0.862,1.416 -1.315,3.026 -1.315,4.708l0,14.987l-5.68,0c-1.52,0 -2.948,0.592 -4.023,1.667c-1.075,1.075 -1.667,2.503 -1.667,4.023c0,3.137 2.552,5.689 5.69,5.689l46.806,0c1.52,0 2.948,-0.592 4.023,-1.667c1.075,-1.074 1.667,-2.503 1.667,-4.022c0,-3.137 -2.552,-5.69 -5.69,-5.69Zm-5.226,-28.62l-4.544,0l0,-2.604c0.734,0.219 1.499,0.332 2.272,0.332c0.773,0 1.539,-0.113 2.272,-0.332l0,2.604l0,0Zm-7.508,-12.432c0,0 0,0 0,0c0.891,-2.11 2.946,-3.473 5.236,-3.473c3.132,0 5.68,2.548 5.68,5.68c0,2.022 -1.088,3.908 -2.841,4.921c-0.858,0.497 -1.84,0.76 -2.839,0.76c-0.999,0 -1.981,-0.263 -2.839,-0.76c-0.661,-0.382 -1.23,-0.884 -1.691,-1.494c-0.752,-0.992 -1.15,-2.177 -1.15,-3.427c0,-0.767 0.149,-1.509 0.444,-2.207Zm1.828,30.609l7.157,0l0,10.452l-7.157,0l0,-10.452Zm-19.184,-11.078c0.001,0.001 0.001,0.001 0.002,0.001c2.866,0.852 4.867,3.539 4.867,6.533c0,3.759 -3.058,6.817 -6.816,6.817c-3.759,0 -6.817,-3.058 -6.817,-6.817c0,-1.483 0.468,-2.892 1.353,-4.076c1.302,-1.741 3.293,-2.74 5.464,-2.74c0.666,0 1.321,0.095 1.947,0.282Zm4.869,12.536l0,8.994l-13.633,0l0,-8.994c1.667,1.891 4.104,3.087 6.817,3.087c2.712,0 5.15,-1.196 6.816,-3.087Zm9.91,-31.34c-0.092,0.484 -0.139,0.978 -0.139,1.48c0,1.117 0.228,2.198 0.667,3.195l-21.909,2.665c0.072,-0.432 0.11,-0.871 0.11,-1.315c0,-2.112 -0.831,-4.075 -2.229,-5.525l23.5,-0.5Zm-29.453,11.699c-3.026,-0.121 -5.451,-2.619 -5.451,-5.674c0,-3.133 2.549,-5.681 5.681,-5.681c0.623,0 1.236,0.101 1.823,0.298c2.307,0.782 3.857,2.945 3.857,5.383c0,0.766 -0.149,1.509 -0.445,2.207c-0.077,0.184 -0.168,0.37 -0.267,0.55c-0.939,1.687 -2.681,2.781 -4.602,2.908c-0.194,-0.049 -0.4,-0.047 -0.596,0.009Zm2.43,1.966c1.538,-0.445 2.917,-1.348 3.942,-2.591l5.485,5.218c-2.043,0.2 -3.97,1.094 -5.444,2.513l-3.983,-5.14Zm44.737,34.753c-0.642,0.642 -1.495,0.996 -2.403,0.996l-46.806,0c-1.875,0 -3.399,-1.525 -3.399,-3.399c0,-0.908 0.353,-1.761 0.996,-2.403c0.642,-0.643 1.495,-0.996 2.403,-0.996l6.816,0c0.047,0 0.093,-0.004 0.139,-0.01l15.628,0c0.045,0.006 0.091,0.01 0.138,0.01l12.043,0c0.047,0 0.093,-0.004 0.139,-0.01l9.152,0c0.045,0.006 0.092,0.01 0.139,0.01l2.613,0c1.874,0 3.399,1.524 3.399,3.399c-0.001,0.907 -0.354,1.76 -0.997,2.403Z" style="fill:#6e55de;fill-rule:nonzero;"/><path d="M45.905,5.456c-1.879,0 -3.408,1.529 -3.408,3.408c0,1.88 1.529,3.409 3.408,3.409c1.88,0 3.408,-1.529 3.408,-3.409c0,-1.879 -1.529,-3.408 -3.408,-3.408Zm0,4.544c-0.626,0 -1.136,-0.509 -1.136,-1.136c0,-0.626 0.51,-1.136 1.136,-1.136c0.627,0 1.136,0.51 1.136,1.136c0,0.627 -0.509,1.136 -1.136,1.136Z" style="fill:#61d180;fill-rule:nonzero;stroke:#6e55de;stroke-width:0.4px;stroke-linecap:butt;stroke-miterlimit:1.41421;"/><path d="M8.869,10c-1.879,0 -3.408,1.529 -3.408,3.409c0,1.879 1.529,3.408 3.408,3.408c1.879,0 3.408,-1.529 3.408,-3.408c0,-1.88 -1.529,-3.409 -3.408,-3.409Zm0,4.545c-0.627,0 -1.136,-0.51 -1.136,-1.136c0,-0.627 0.509,-1.136 1.136,-1.136c0.626,0 1.136,0.509 1.136,1.136c0,0.626 -0.51,1.136 -1.136,1.136Z" style="fill:#61d180;fill-rule:nonzero;stroke:#6e55de;stroke-width:0.4px;stroke-linecap:butt;stroke-miterlimit:1.41421;"/><path d="M21.366,28.178c-2.506,0 -4.545,2.038 -4.545,4.544c0,2.506 2.039,4.544 4.545,4.544c2.506,0 4.544,-2.038 4.544,-4.544c0,-2.506 -2.038,-4.544 -4.544,-4.544Zm0,6.816c-1.253,0 -2.272,-1.019 -2.272,-2.272c0,-1.253 1.019,-2.272 2.272,-2.272c1.253,0 2.272,1.019 2.272,2.272c0,1.253 -1.019,2.272 -2.272,2.272Z" style="fill:#61d180;fill-rule:nonzero;stroke:#6e55de;stroke-width:0.4px;stroke-linecap:butt;stroke-miterlimit:1.41421;"/><rect x="42.497" y="37.266" width="7.157" height="10.404" style="fill:#f7e0ff;"/></svg>